<?xml version="1.0" standalone="no"?>
<!DOCTYPE svg PUBLIC "-//W3C//DTD SVG 20010904//EN"
 "http://www.w3.org/TR/2001/REC-SVG-20010904/DTD/svg10.dtd">
<svg version="1.0" xmlns="http://www.w3.org/2000/svg"
 width="79.000000pt" height="79.000000pt" viewBox="0 0 79.000000 79.000000"
 preserveAspectRatio="xMidYMid meet">
<metadata>
Created by potrace 1.14, written by Peter Selinger 2001-2017
</metadata>
<g transform="translate(0.000000,79.000000) scale(0.100000,-0.100000)"
fill="#000000" stroke="none">
<path d="M339 572 c-26 -23 -32 -36 -32 -71 0 -51 26 -82 98 -118 67 -34 85
-51 85 -82 0 -66 -61 -94 -144 -66 -52 18 -66 14 -50 -13 17 -26 100 -44 147
-31 58 16 87 49 87 101 0 54 -19 82 -73 109 -75 38 -107 67 -107 99 0 16 7 36
16 44 20 20 76 20 114 1 29 -15 30 -15 30 8 0 30 -35 47 -95 47 -35 0 -52 -6
-76 -28z"/>
</g>
</svg>
